# xmcd
#
# Track frame offsets: 
#        150
#        13584
#        28129
#        45662
#        57542
#        70512
#        87237
#        94554
#        109879
#        123004
#        138540
#        153879
#
# Disc length: 2223 seconds
#
# Revision: 0
# Processed by: cddbd v1.5.2PL0 Copyright (c) Steve Scherf et al.
# Submitted via: ExactAudioCopy v1.3
#
DISCID=9508ad0c
DTITLE=The Resonators - The Resonators
DYEAR=2006
DGENRE=
TTITLE0=Don't go no farther
TTITLE1=Last night
TTITLE2=Tell me Mama
TTITLE3=Nothing you can do
TTITLE4=Ah'w baby
TTITLE5=I want you to love me
TTITLE6=Every day I have the Blues
TTITLE7=Big boss man
TTITLE8=Key o'dynamite
TTITLE9=What your Mama feed you
TTITLE10=Money, marbles and chalk
TTITLE11=You're the one
EXTD=
EXTT0=
EXTT1=
EXTT2=
EXTT3=
EXTT4=
EXTT5=
EXTT6=
EXTT7=
EXTT8=
EXTT9=
EXTT10=
EXTT11=
PLAYORDER=
